Coordinates
version=1
nRows=12
nColumns=24
inDegrees=yes

Units are S.I. units (second, meters, Newtons, ...)
Angles are in degrees.

endheader
time	pelvis_tilt	pelvis_list	pelvis_rotation	pelvis_tx	pelvis_ty	pelvis_tz	hip_flexion_r	hip_adduction_r	hip_rotation_r	knee_angle_r	ankle_angle_r	subtalar_angle_r	mtp_angle_r	hip_flexion_l	hip_adduction_l	hip_rotation_l	knee_angle_l	ankle_angle_l	subtalar_angle_l	mtp_angle_l	lumbar_extension	lumbar_bending	lumbar_rotation
      5.37500000	     37.34596828	      4.81803378	      3.65963779	      0.47739664	      0.67938826	     -0.22542374	    -33.37227519	     -0.29794378	     -7.07689932	    -10.98110839	     18.31107570	      8.82527614	      0.00000000	    -19.52494509	     -1.20622600	     -8.02743607	    -60.01463422	     10.32422230	      2.55430389	      0.00000000	    -62.59445207	      0.02325185	      0.21722341
      5.38000000	     37.33737527	      4.79595642	      3.45787920	      0.48193858	      0.67948950	     -0.22523833	    -33.91789604	     -0.33183348	     -7.05380564	    -10.71659020	     18.62081430	      9.06408644	      0.00000000	    -18.93690044	     -0.99124055	     -8.29076041	    -59.25223037	     10.74311636	      3.14634514	      0.00000000	    -62.66561810	     -0.09799689	      0.38261507
      5.38500000	     37.27520285	      4.82780073	      3.34837659	      0.48641788	      0.67949086	     -0.22512371	    -34.39826352	     -0.36257400	     -7.09261045	    -10.47711380	     18.86910187	      9.11747070	      0.00000000	    -18.27824002	     -0.74664444	     -8.45642336	    -58.44489299	     11.15428067	      3.59030169	      0.00000000	    -62.71061221	     -0.20555257	      0.54293570
      5.39000000	     37.26602736	      4.79672178	      3.18100557	      0.49093718	      0.67945130	     -0.22499504	    -34.91854571	     -0.37159569	     -7.07169492	    -10.25999813	     19.20015889	      9.28160663	      0.00000000	    -17.72116287	     -0.56856770	     -8.69303587	    -57.55147496	     11.50504448	      4.18590843	      0.00000000	    -62.78624055	     -0.28385687	      0.68012731
      5.39500000	     37.25401497	      4.78184220	      3.04783107	      0.49543065	      0.67934224	     -0.22489203	    -35.42412324	     -0.37375184	     -7.06338877	    -10.06989390	     19.51467996	      9.35944235	      0.00000000	    -17.17571914	     -0.38991627	     -8.90208309	    -56.58952948	     11.84176312	      4.66293200	      0.00000000	    -62.87093825	     -0.35694822	      0.83387696
      5.40000000	     37.22278408	      4.76633869	      2.95406343	      0.49988967	      0.67915035	     -0.22484206	    -35.88521353	     -0.35774817	     -7.07996182	     -9.92784013	     19.82553385	      9.37988950	      0.00000000	    -16.61685398	     -0.21826929	     -9.05415976	    -55.57229062	     12.16924009	      5.08178907	      0.00000000	    -62.94677204	     -0.40220129	      0.97434652
      5.40500000	     37.31570758	      4.70181926	      2.74711865	      0.50437396	      0.67897130	     -0.22472788	    -36.47660075	     -0.35971516	     -6.97109625	     -9.77404670	     20.18326050	      9.48435178	      0.00000000	    -16.26304066	     -0.09000106	     -9.35708545	    -54.43278917	     12.46469162	      5.48552934	      0.00000000	    -63.13654154	     -0.48360600	      1.17172050
      5.41000000	     37.24534241	      4.68694624	      2.73417764	      0.50882509	      0.67862100	     -0.22472055	    -36.87870346	     -0.29529311	     -6.99831980	     -9.67435994	     20.52545814	      9.41907372	      0.00000000	    -15.68322367	      0.04364575	     -9.43323916	    -53.31145664	     12.71200745	      5.82682220	      0.00000000	    -63.17969747	     -0.47980156	      1.26594967
      5.41500000	     37.23690194	      4.63557833	      2.66295439	      0.51330228	      0.67825617	     -0.22463914	    -37.33551280	     -0.23040929	     -6.95908095	     -9.59087143	     20.90922522	      9.45071052	      0.00000000	    -15.22368497	      0.12121856	     -9.61728415	    -52.09382132	     12.92838857	      6.24033766	      0.00000000	    -63.27424896	     -0.49336759	      1.34651027
      5.42000000	     37.20705064	      4.59547422	      2.64649906	      0.51772492	      0.67781175	     -0.22465040	    -37.74338437	     -0.15043553	     -6.95408018	     -9.56266198	     21.27967528	      9.41012672	      0.00000000	    -14.75062934	      0.21466129	     -9.72280133	    -50.81483546	     13.16119114	      6.50631776	      0.00000000	    -63.36733998	     -0.46941507	      1.45427067
      5.42500000	     37.18604402	      4.52931722	      2.61399731	      0.52219627	      0.67732194	     -0.22464986	    -38.16016430	     -0.05795655	     -6.93331546	     -9.53460842	     21.68212846	      9.38464908	      0.00000000	    -14.32460404	      0.27883912	     -9.84310921	    -49.46428496	     13.35882642	      6.77956294	      0.00000000	    -63.45635279	     -0.44185623	      1.53970384
      5.43000000	     37.22031227	      4.46221056	      2.53305487	      0.52669723	      0.67684025	     -0.22453461	    -38.63368521	      0.01510380	     -6.86202402	     -9.51433815	     22.10097394	      9.40685196	      0.00000000	    -14.01681329	      0.32013767	    -10.05824113	    -48.00257416	     13.47661546	      7.08352071	      0.00000000	    -63.58936568	     -0.46590375	      1.62751606
